<mxfile host="app.diagrams.net" modified="2021-05-03T20:06:55.017Z" agent="5.0 (Windows NT 10.0; Win64; x64) AppleWebKit/537.36 (KHTML, like Gecko) Chrome/90.0.4430.72 Safari/537.36" etag="JJgv5ZKblEraJifliso9" version="14.6.9" type="github">
  <diagram name="Page-1" id="97916047-d0de-89f5-080d-49f4d83e522f">
    <mxGraphModel dx="1209" dy="437" grid="1" gridSize="10" guides="1" tooltips="1" connect="1" arrows="1" fold="1" page="1" pageScale="1.5" pageWidth="1169" pageHeight="827" background="#ffffff" math="0" shadow="0">
      <root>
        <mxCell id="0" />
        <mxCell id="1" parent="0" />
        <mxCell id="DUvhh0SMQZRLqaNrzVnk-70" value="" style="whiteSpace=wrap;html=1;aspect=fixed;fillColor=#dae8fc;strokeColor=#6c8ebf;" parent="1" vertex="1">
          <mxGeometry x="540" y="290" width="490" height="490" as="geometry" />
        </mxCell>
        <mxCell id="DUvhh0SMQZRLqaNrzVnk-72" value="" style="rounded=0;whiteSpace=wrap;html=1;fillColor=#f5f5f5;strokeColor=#666666;fontColor=#333333;" parent="1" vertex="1">
          <mxGeometry x="560" y="550" width="460" height="110" as="geometry" />
        </mxCell>
        <mxCell id="DUvhh0SMQZRLqaNrzVnk-71" value="" style="rounded=0;whiteSpace=wrap;html=1;fillColor=#f5f5f5;strokeColor=#666666;fontColor=#333333;" parent="1" vertex="1">
          <mxGeometry x="560" y="430" width="460" height="110" as="geometry" />
        </mxCell>
        <mxCell id="DUvhh0SMQZRLqaNrzVnk-69" value="" style="rounded=0;whiteSpace=wrap;html=1;fillColor=#f5f5f5;strokeColor=#666666;fontColor=#333333;" parent="1" vertex="1">
          <mxGeometry x="560" y="310" width="460" height="110" as="geometry" />
        </mxCell>
        <mxCell id="2" value="Genesys" style="rounded=1;fillColor=#dae8fc;strokeColor=#6c8ebf;shadow=1;fontStyle=1;fontSize=14;" parent="1" vertex="1">
          <mxGeometry x="672" y="205.5" width="200" height="60" as="geometry" />
        </mxCell>
        <mxCell id="3" value="Genesys Member EAPI" style="rounded=1;fillColor=#d5e8d4;strokeColor=#82b366;shadow=1;fontStyle=1;fontSize=14;" parent="1" vertex="1">
          <mxGeometry x="662" y="330" width="220" height="60" as="geometry" />
        </mxCell>
        <mxCell id="13" value="Sym Member Names SAPI" style="rounded=1;fillColor=#d5e8d4;strokeColor=#82b366;shadow=1;fontStyle=1;fontSize=14;" parent="1" vertex="1">
          <mxGeometry x="570" y="580" width="200" height="60" as="geometry" />
        </mxCell>
        <mxCell id="18" value="Member Warnings SAPI" style="rounded=1;fillColor=#d5e8d4;strokeColor=#82b366;shadow=1;fontStyle=1;fontSize=14;" parent="1" vertex="1">
          <mxGeometry x="790" y="580" width="200" height="60" as="geometry" />
        </mxCell>
        <mxCell id="29" value="" style="edgeStyle=elbowEdgeStyle;elbow=vertical;strokeWidth=4;endArrow=block;endFill=1;fontStyle=1;strokeColor=#23445D;" parent="1" source="2" target="3" edge="1">
          <mxGeometry x="22" y="165.5" width="100" height="100" as="geometry">
            <mxPoint x="22" y="265.5" as="sourcePoint" />
            <mxPoint x="122" y="165.5" as="targetPoint" />
          </mxGeometry>
        </mxCell>
        <mxCell id="30" value="" style="edgeStyle=elbowEdgeStyle;elbow=vertical;strokeWidth=4;endArrow=block;endFill=1;fontStyle=1;strokeColor=#23445D;" parent="1" source="3" target="5" edge="1">
          <mxGeometry x="22" y="165.5" width="100" height="100" as="geometry">
            <mxPoint x="22" y="265.5" as="sourcePoint" />
            <mxPoint x="122" y="165.5" as="targetPoint" />
          </mxGeometry>
        </mxCell>
        <mxCell id="54" value="" style="edgeStyle=elbowEdgeStyle;elbow=vertical;strokeWidth=4;endArrow=block;endFill=1;fontStyle=1;strokeColor=#23445D;" parent="1" source="3" target="13" edge="1">
          <mxGeometry x="22" y="165.5" width="100" height="100" as="geometry">
            <mxPoint x="22" y="265.5" as="sourcePoint" />
            <mxPoint x="122" y="165.5" as="targetPoint" />
            <Array as="points">
              <mxPoint x="652" y="555.5" />
            </Array>
          </mxGeometry>
        </mxCell>
        <mxCell id="55" value="" style="edgeStyle=elbowEdgeStyle;elbow=vertical;strokeWidth=4;endArrow=block;endFill=1;fontStyle=1;strokeColor=#23445D;" parent="1" source="3" target="18" edge="1">
          <mxGeometry x="22" y="165.5" width="100" height="100" as="geometry">
            <mxPoint x="22" y="265.5" as="sourcePoint" />
            <mxPoint x="122" y="165.5" as="targetPoint" />
            <Array as="points">
              <mxPoint x="942" y="555.5" />
            </Array>
          </mxGeometry>
        </mxCell>
        <mxCell id="5" value="Member Validation PAPI" style="rounded=1;fillColor=#d5e8d4;strokeColor=#82b366;shadow=1;fontStyle=1;fontSize=14;" parent="1" vertex="1">
          <mxGeometry x="672" y="440" width="200" height="60" as="geometry" />
        </mxCell>
        <mxCell id="DUvhh0SMQZRLqaNrzVnk-74" value="&lt;b&gt;&lt;font color=&quot;#ffffff&quot; style=&quot;font-size: 19px&quot;&gt;Symitar&lt;/font&gt;&lt;/b&gt;" style="shape=cube;whiteSpace=wrap;html=1;boundedLbl=1;backgroundOutline=1;darkOpacity=0.05;darkOpacity2=0.1;fillColor=#f8cecc;strokeColor=#b85450;gradientColor=#ea6b66;" parent="1" vertex="1">
          <mxGeometry x="660" y="700" width="250" height="70" as="geometry" />
        </mxCell>
        <mxCell id="DUvhh0SMQZRLqaNrzVnk-77" value="" style="endArrow=classic;html=1;" parent="1" source="DUvhh0SMQZRLqaNrzVnk-72" target="DUvhh0SMQZRLqaNrzVnk-74" edge="1">
          <mxGeometry width="50" height="50" relative="1" as="geometry">
            <mxPoint x="790" y="560" as="sourcePoint" />
            <mxPoint x="840" y="510" as="targetPoint" />
          </mxGeometry>
        </mxCell>
        <mxCell id="DUvhh0SMQZRLqaNrzVnk-78" value="System" style="text;html=1;strokeColor=none;fillColor=none;align=center;verticalAlign=middle;whiteSpace=wrap;rounded=0;" parent="1" vertex="1">
          <mxGeometry x="570" y="560" width="40" height="20" as="geometry" />
        </mxCell>
        <mxCell id="DUvhh0SMQZRLqaNrzVnk-79" value="Process" style="text;html=1;strokeColor=none;fillColor=none;align=center;verticalAlign=middle;whiteSpace=wrap;rounded=0;" parent="1" vertex="1">
          <mxGeometry x="580" y="450" width="60" height="40" as="geometry" />
        </mxCell>
        <mxCell id="DUvhh0SMQZRLqaNrzVnk-81" value="Experience" style="text;html=1;strokeColor=none;fillColor=none;align=center;verticalAlign=middle;whiteSpace=wrap;rounded=0;" parent="1" vertex="1">
          <mxGeometry x="571" y="330" width="60" height="30" as="geometry" />
        </mxCell>
        <mxCell id="mWHpOZ5TqDYPtPU1qj1F-55" value="symExch" style="text;html=1;strokeColor=none;fillColor=none;align=center;verticalAlign=middle;whiteSpace=wrap;rounded=0;" vertex="1" parent="1">
          <mxGeometry x="740" y="664" width="40" height="20" as="geometry" />
        </mxCell>
      </root>
    </mxGraphModel>
  </diagram>
</mxfile>
